HIERARCHY
ROOT hip
{
	OFFSET 0.000000 0.000000 0.000000 
	CHANNELS 6 Xposition Yposition Zposition Xrotation Zrotation Yrotation
	JOINT abdomen
	{
		OFFSET 0.000000 3.402643 0.000000 
		CHANNELS 3 Xrotation Zrotation Yrotation
		JOINT chest
		{
			OFFSET 0.000000 8.438565 -0.680529 
			CHANNELS 3 Xrotation Zrotation Yrotation
			JOINT neck
			{
				OFFSET 0.000000 10.207942 -0.272212 
				CHANNELS 3 Xrotation Zrotation Yrotation
				JOINT head
				{
					OFFSET 0.000000 3.130431 0.000000 
					CHANNELS 3 Xrotation Zrotation Yrotation
					End Site
					{
						OFFSET 0.000000 3.130435 0.000000 
					}
				}
			}
			JOINT lCollar
			{
				OFFSET 3.470700 6.669187 -0.816635 
				CHANNELS 3 Yrotation Zrotation Xrotation
				JOINT lShldr
				{
					OFFSET 3.198488 0.000000 0.000000 
					CHANNELS 3 Zrotation Yrotation Xrotation
					JOINT lForeArm
					{
						OFFSET 10.139888 0.000000 0.000000 
						CHANNELS 3 Yrotation Zrotation Xrotation
						JOINT lHand
						{
							OFFSET 8.370511 0.000000 0.000000 
							CHANNELS 3 Zrotation Yrotation Xrotation
							End Site
							{
								OFFSET 4.083176 0.000000 0.000000 
							}
						}
					}
				}
			}
			JOINT rCollar
			{
				OFFSET -3.470700 6.669187 -0.816635 
				CHANNELS 3 Yrotation Zrotation Xrotation
				JOINT rShldr
				{
					OFFSET -3.198488 0.000000 0.000000 
					CHANNELS 3 Zrotation Yrotation Xrotation
					JOINT rForeArm
					{
						OFFSET -10.139888 0.000000 0.000000 
						CHANNELS 3 Yrotation Zrotation Xrotation
						JOINT rHand
						{
							OFFSET -8.370511 0.000000 0.000000 
							CHANNELS 3 Zrotation Yrotation Xrotation
							End Site
							{
								OFFSET -4.083176 0.000000 0.000000 
							}
						}
					}
				}
			}
		}
	}
	JOINT lThigh
	{
		OFFSET 5.308129 -1.633274 1.361059 
		CHANNELS 3 Xrotation Zrotation Yrotation
		JOINT lShin
		{
			OFFSET -2.041588 -20.007561 0.000000 
			CHANNELS 3 Xrotation Zrotation Yrotation
			JOINT lFoot
			{
				OFFSET 0.000000 -19.190928 -1.224953 
				CHANNELS 3 Xrotation Yrotation Zrotation
				End Site
				{
					OFFSET 0.000000 -2.449906 4.627600 
				}
			}
		}
	}
	JOINT rThigh
	{
		OFFSET -5.308129 -1.633274 1.361059 
		CHANNELS 3 Xrotation Zrotation Yrotation
		JOINT rShin
		{
			OFFSET 2.041588 -20.007561 0.000000 
			CHANNELS 3 Xrotation Zrotation Yrotation
			JOINT rFoot
			{
				OFFSET 0.000000 -19.190928 -1.224953 
				CHANNELS 3 Xrotation Yrotation Zrotation
				End Site
				{
					OFFSET 0.000000 -2.449906 4.627600 
				}
			}
		}
	}
}
MOTION
Frames: 6
Frame Time: 0.011111
-43.985249 53.170540 3.083323 -2.294674 -5.217772 83.494667 16.081738 6.766936 5.941277 -19.458048 -2.701120 0.937340 -11.104462 -6.812366 -7.861284 11.862973 5.097182 -16.971825 -13.725516 -13.189672 -3.762996 -64.473122 -26.733807 4.324194 -50.506603 7.809088 8.351495 8.524705 12.647240 -44.983776 8.354301 9.292459 -1.514610 72.058380 20.727274 2.171606 50.153957 -7.743216 8.218470 -8.534408 -12.637552 20.990093 0.888970 10.828399 -1.311368 9.106666 -5.993355 -2.000463 -29.524750 0.674793 -1.374814 -2.480244 -3.320113 5.056383 12.348935 5.952365 2.446116 -21.520943 -3.947244 1.112487 
-43.909912 53.222557 3.095453 -1.518582 -5.803337 83.886620 14.740852 5.709786 5.304369 -19.067902 -2.247126 0.872027 -10.600161 -6.497199 -8.035708 11.307028 4.692297 -17.245169 -13.725516 -13.189672 -3.762996 -64.506691 -26.590189 4.332858 -50.486263 7.806779 8.340750 8.524705 12.647240 -45.013073 8.354301 9.292459 -1.514610 72.150551 20.207047 3.104150 49.392097 -7.564843 7.914662 -8.534408 -12.637552 16.566265 0.156515 10.025762 -1.616099 9.344253 -5.985187 -2.030833 -29.367126 0.424657 -1.518358 -3.053617 -4.254101 5.049074 11.779003 5.962867 2.347203 -21.514303 -4.615686 0.881853 
-43.835224 53.274906 3.108220 -0.730457 -6.393772 84.266090 13.445755 4.607570 4.762373 -18.785177 -1.899120 0.842326 -10.010604 -6.256905 -8.217494 10.661858 4.531816 -17.517742 -13.725516 -13.189672 -3.762996 -64.443871 -26.322424 4.453863 -50.433483 7.792875 8.322203 8.524705 12.647240 -45.179085 8.354301 9.292459 -1.514610 72.348221 19.911142 2.957617 49.528297 -7.602581 7.981073 -8.534408 -12.637552 16.693216 -0.536189 9.220322 -1.820981 9.510900 -5.995563 -2.056227 -29.138363 0.158919 -1.694782 -3.686042 -5.188738 5.098557 11.295340 5.964706 2.273974 -21.526213 -5.139582 0.717205 
-43.765961 53.322147 3.125137 0.062393 -6.959992 84.640511 12.205990 3.396217 4.311697 -18.639194 -1.588616 0.838018 -9.242584 -5.782045 -8.487189 9.956780 4.028194 -17.926224 -13.725516 -13.189672 -3.762996 -64.302902 -25.833977 4.877523 -50.403294 7.793096 8.319579 8.524705 12.647240 -45.159554 8.354301 9.292459 -1.514610 72.648422 19.472872 2.719348 49.673401 -7.631139 8.032204 -8.534408 -12.637552 16.761576 -1.189820 8.420212 -1.985732 9.661951 -5.992779 -2.079973 -28.808054 -0.144648 -1.895489 -4.301017 -6.145389 5.138514 10.868610 5.975910 2.216514 -21.480688 -5.784843 0.492140 
-43.550831 53.458759 3.183229 -0.821699 -8.924922 85.987221 8.776793 4.452408 3.650737 -17.476585 -1.614931 0.619305 -8.752704 -5.495045 -8.617496 9.745856 3.970065 -18.087130 -13.725516 -13.189672 -3.762996 -64.208290 -25.377048 5.261417 -50.434509 7.799095 8.329661 8.524705 12.647240 -44.993538 8.354301 9.292459 -1.514610 72.878250 19.102879 2.506270 49.746456 -7.648430 8.062195 -8.534408 -12.637552 16.702986 -3.700769 9.667109 -1.931210 10.043788 -5.983505 -2.133240 -28.065130 -1.124188 -2.500298 -5.454151 -5.074342 4.783134 10.117574 5.974138 2.129978 -21.640781 -6.749737 0.113223 
-43.416454 53.551643 3.229191 -0.668102 -10.174426 86.832809 6.681822 4.216944 2.657963 -16.666540 -1.247914 0.396645 -9.126065 -5.711857 -8.477563 9.974124 4.104064 -17.885048 -13.725516 -13.189672 -3.762996 -64.204041 -25.456837 4.870323 -50.371044 7.780848 8.300734 8.524705 12.647240 -45.071667 8.354301 9.292459 -1.514610 72.761810 19.213396 2.602096 49.580017 -7.611118 7.991700 -8.534408 -12.637552 16.429546 -5.261250 9.566889 -2.040025 10.381562 -5.984376 -2.203217 -27.672384 -1.753707 -2.857174 -6.444370 -5.282549 4.703320 9.519344 5.982728 2.036816 -21.927959 -7.662095 -0.223198 
